<svg id="Layer_1" data-name="Layer 1" xmlns="http://www.w3.org/2000/svg" xmlns:xlink="http://www.w3.org/1999/xlink" viewBox="0 0 5606.22 3949.41"><defs><style>.cls-1{fill:url(#linear-gradient);}.cls-2{fill:url(#linear-gradient-2);}.cls-3{fill:url(#linear-gradient-3);}.cls-4{fill:url(#linear-gradient-4);}.cls-5,.cls-6{fill:none;}.cls-6{clip-rule:evenodd;}.cls-7{clip-path:url(#clip-path);}.cls-16,.cls-8{fill:#fff;}.cls-9{clip-path:url(#clip-path-2);}.cls-10{fill:url(#linear-gradient-5);}.cls-11{mask:url(#mask);}.cls-12{fill:#012604;}.cls-12,.cls-16,.cls-18,.cls-20{fill-rule:evenodd;}.cls-13{clip-path:url(#clip-path-3);}.cls-14{fill:url(#linear-gradient-6);}.cls-15{mask:url(#mask-2);}.cls-17{mask:url(#mask-3);}.cls-18{fill:#d7f241;}.cls-19{mask:url(#mask-4);}.cls-20{fill:#102770;}</style><linearGradient id="linear-gradient" x1="4438.65" y1="2113.19" x2="1746.83" y2="2546.18" gradientTransform="translate(105.2 -56.86)" gradientUnits="userSpaceOnUse"><stop offset="0" stop-color="#fff"/><stop offset="1"/></linearGradient><linearGradient id="linear-gradient-2" x1="2582.03" y1="456.48" x2="2912.14" y2="2062.5" gradientTransform="translate(97.47 -90.04)" xlink:href="#linear-gradient"/><linearGradient id="linear-gradient-3" x1="1274.59" y1="1027.04" x2="3066.24" y2="2410.83" gradientTransform="translate(89.46 -71.45)" xlink:href="#linear-gradient"/><linearGradient id="linear-gradient-4" x1="4064.77" y1="2135.27" x2="2352.54" y2="1870.03" gradientTransform="translate(104.41 -73.99)" xlink:href="#linear-gradient"/><clipPath id="clip-path" transform="translate(-25.39 -25.3)"><rect class="cls-5" width="5657" height="4000"/></clipPath><clipPath id="clip-path-2" transform="translate(-25.39 -25.3)"><path class="cls-6" d="M2459.65,1608.5c-90.85,146.26-163,296.14-163,403.34,0,289.62,235.65,524.4,526.34,524.4,272.26,0,496.16-206,523.44-470.08-74.91,51.86-141.26,87.69-200.48,110.22-67.43,25.66-126.52,34.25-179,29.57-53.27-4.76-99-23.23-139.37-51.49-38-26.66-71-62.07-100.66-102.74l-.07-.11-.12.08q-3.57-4.9-7.19-10.08l-23.6-32.3,1.55-1.15-2.88-4.61c-11-17.67-20.68-34.4-29.56-50.49-9.48-17.16-18.94-35.09-28.37-53.38v-.21c-8.92-17.29-17.65-34.64-26.37-52-12-23.85-24-47.66-36.36-71.2-11.7-22.25-23.81-44.22-36.74-65.68a656,656,0,0,0-39.63-58.94,373.17,373.17,0,0,0-37.93-43.2"/></clipPath><linearGradient id="linear-gradient-5" x1="3035.57" y1="2442.95" x2="2393.34" y2="1380.93" gradientUnits="userSpaceOnUse"><stop offset="0" stop-color="#045304"/><stop offset="1" stop-color="#b0f122"/></linearGradient><mask id="mask" x="2671.14" y="2040.87" width="649.92" height="470.07" maskUnits="userSpaceOnUse"><g transform="translate(-25.39 -25.3)"><rect class="cls-1" x="2696.53" y="2066.16" width="649.92" height="470.07"/></g></mask><clipPath id="clip-path-3" transform="translate(-25.39 -25.3)"><path class="cls-6" d="M3360.32,1948.06c-15-294.16-526-877.64-526-877.64s-183.83,209.91-334.21,441.39l3.54,3.3c34.09,31.64,63.54,72.22,90.73,117.35,26.28,43.65,50.59,91.94,75,140.42,17.24,34.26,34.55,68.63,53.9,103.67,18.24,33,37.34,64.53,58.13,93l0,0c52.68,72.14,115.63,124.87,201.51,132.54,89,7.95,204.69-30.81,361.77-142.88Z"/></clipPath><linearGradient id="linear-gradient-6" x1="2934.92" y1="2202.49" x2="2871.67" y2="862.09" gradientUnits="userSpaceOnUse"><stop offset="0" stop-color="#1b1464"/><stop offset="1" stop-color="aqua"/></linearGradient><mask id="mask-2" x="2474.75" y="1045.12" width="776.9" height="626.52" maskUnits="userSpaceOnUse"><g transform="translate(-25.39 -25.3)"><rect class="cls-2" x="2500.14" y="1070.42" width="776.9" height="626.52"/></g></mask><mask id="mask-3" x="2271.28" y="1583.21" width="548.84" height="558.72" maskUnits="userSpaceOnUse"><g transform="translate(-25.39 -25.3)"><rect class="cls-3" x="2296.67" y="1608.5" width="548.84" height="558.72"/></g></mask><mask id="mask-4" x="2650.9" y="1637.59" width="684.03" height="440.22" maskUnits="userSpaceOnUse"><g transform="translate(-25.39 -25.3)"><rect class="cls-4" x="2676.29" y="1662.89" width="684.03" height="440.22"/></g></mask></defs><title>water [Converted]</title><g class="cls-7"><rect class="cls-8" width="5606.22" height="3949.41"/><g class="cls-9"><rect class="cls-10" x="2271.28" y="1583.21" width="1049.78" height="927.74"/></g><g class="cls-11"><path class="cls-12" d="M2696.53,2521A529.24,529.24,0,0,0,2823,2536.24c272.26,0,496.16-206,523.44-470.08-74.91,51.86-141.26,87.69-200.48,110.22-67.43,25.66-126.52,34.25-179,29.57,183.38,318.18-263.52,315.08-270.42,315" transform="translate(-25.39 -25.3)"/></g><g class="cls-13"><rect class="cls-14" x="2474.75" y="1045.12" width="860.18" height="1039.64"/></g><g class="cls-15"><path class="cls-16" d="M2500.14,1511.81s397.22-477.89,776.9,185.13c-148.48-290.58-442.69-626.52-442.69-626.52s-183.83,209.91-334.21,441.39" transform="translate(-25.39 -25.3)"/></g><g class="cls-17"><path class="cls-18" d="M2320.17,2167.22s14.1-253.21,525.35-1.07q-9.15-5.52-17.94-11.69c-38-26.66-71-62.07-100.66-102.74l-.07-.11-.12.08-7.19-10.08-23.6-32.3,1.55-1.15-2.88-4.61c-11-17.67-20.68-34.4-29.56-50.49-9.48-17.16-18.94-35.09-28.37-53.38v-.21c-8.92-17.29-17.65-34.64-26.37-52-12-23.85-24-47.66-36.36-71.2-11.7-22.25-23.81-44.22-36.74-65.68a656,656,0,0,0-39.63-58.94,373.17,373.17,0,0,0-37.93-43.2c-90.85,146.26-163,296.14-163,403.34a522.37,522.37,0,0,0,23.5,155.38" transform="translate(-25.39 -25.3)"/></g><g class="cls-19"><path class="cls-20" d="M3360.32,1948.06c-3.61-71-36.08-158.75-83.28-251.12q-10-17.55-20.11-34c-259,513.76-580.64,123.7-580.64,123.7,15,29.73,30.21,59.59,47,90,18.24,33,37.34,64.53,58.11,93,52.68,72.14,115.63,124.87,201.51,132.54,89,7.95,204.69-30.81,361.77-142.88Z" transform="translate(-25.39 -25.3)"/></g></g></svg>